<svg xmlns="http://www.w3.org/2000/svg" viewBox="0 0 32 32">
  <defs>
    <linearGradient id="bg" x1="0" y1="0" x2="1" y2="1">
      <stop offset="0%" stop-color="#0d0d0d" />
      <stop offset="100%" stop-color="#161616" />
    </linearGradient>
    <linearGradient id="accent" x1="0" y1="1" x2="1" y2="0">
      <stop offset="0%" stop-color="#e8c97d" />
      <stop offset="100%" stop-color="#f3dfa7" />
    </linearGradient>
  </defs>
  <rect width="32" height="32" rx="9" fill="url(#bg)" />
  <path d="M6 15.5L16 8l10 7.5" fill="none" stroke="#f0dba4" stroke-width="1.7" stroke-linecap="round" stroke-linejoin="round" />
  <path d="M10.5 26V17.7c0-.9.7-1.6 1.6-1.6H15c.8 0 1.5.6 1.6 1.4L17.4 26" fill="#151515" stroke="url(#accent)" stroke-width="1.2" stroke-linejoin="round" />
  <path d="M21.5 26V17.7c0-.9-.7-1.6-1.6-1.6H17c-.8 0-1.5.6-1.6 1.4L14.6 26" fill="#151515" stroke="url(#accent)" stroke-width="1.2" stroke-linejoin="round" />
  <path d="M7 19.5l-1.8.8c-.5.2-.5.9 0 1.1l7.8 3.5c.4.2.9.2 1.3 0l4.5-2.1" fill="none" stroke="#e8c97d" stroke-width="1" stroke-linecap="round" stroke-linejoin="round" />
  <circle cx="23.8" cy="14" r="2.2" fill="rgba(232,201,125,0.3)" stroke="#f3dfa7" stroke-width="0.8" />
</svg>

